<svg width="12" height="15" viewBox="0 0 12 15" fill="none" xmlns="http://www.w3.org/2000/svg">
<path d="M8.205 12.5012L6 11.2654L3.795 12.5012L4.38 10.1152L2.43751 8.51509L4.995 8.30793L6 6.072L7.005 8.30793L9.56249 8.51509L7.62 10.1152L8.205 12.5012ZM12 0H8.8756e-06V1.42871L3.645 4.02895C2.37331 4.54585 1.32807 5.46521 0.68606 6.63156C0.0440448 7.79791 -0.155344 9.13967 0.121613 10.4299C0.39857 11.7202 1.13488 12.8797 2.20601 13.7124C3.27714 14.5452 4.61735 15 6 15C7.38265 15 8.72286 14.5452 9.79399 13.7124C10.8651 12.8797 11.6014 11.7202 11.8784 10.4299C12.1553 9.13967 11.956 7.79791 11.3139 6.63156C10.6719 5.46521 9.62669 4.54585 8.355 4.02895L12 1.42871V0ZM10.5 9.28659C10.5004 10.0983 10.2588 10.8934 9.80331 11.5795C9.34782 12.2655 8.69717 12.8142 7.92706 13.1618C7.15696 13.5094 6.29905 13.6416 5.45316 13.543C4.60727 13.4443 3.80818 13.1189 3.14885 12.6046C2.48953 12.0904 1.99708 11.4083 1.7288 10.6379C1.46052 9.86746 1.42745 9.04031 1.63342 8.25267C1.8394 7.46503 2.27595 6.7493 2.8923 6.18873C3.50865 5.62817 4.27944 5.24583 5.115 5.08619C5.6989 4.97187 6.30111 4.97187 6.885 5.08619C7.90419 5.28091 8.82117 5.8057 9.48016 6.57141C10.1392 7.33711 10.4995 8.2965 10.5 9.28659V9.28659ZM6.4725 3.57177H5.5275L2.52751 1.42871H9.53249L6.4725 3.57177Z" fill="#CECECE"/>
</svg>
